<?xml version="1.0" encoding="utf-8"?>
<svg version="1.1" id="Lager_1" xmlns="http://www.w3.org/2000/svg" xmlns:xlink="http://www.w3.org/1999/xlink" x="0px" y="0px"
	 viewBox="0 0 1321.8 475.8" style="enable-background:new 0 0 1321.8 475.8;" xml:space="preserve">
<path d="M122.1,337.4h23.2c20.5,0,40.1-8.8,53.7-24.2l4.6-5.2c11.5-13.1,17.9-29.9,17.9-47.4V138.4h-99.4
	c-20.5,0-40.1,8.8-53.7,24.2l-4.6,5.2c-11.5,13.1-17.9,29.9-17.9,47.4v45.4c0,17.4,6.4,34.3,17.9,47.4l4.6,5.2
	C82,328.6,101.6,337.4,122.1,337.4z"/>
<path d="M256.8,337.4h175.6V215.2c0-17.4-6.4-34.3-17.9-47.4l-4.6-5.2c-13.6-15.4-33.1-24.2-53.7-24.2H333
	c-20.5,0-40.1,8.8-53.7,24.2l-4.6,5.2c-11.5,13.1-17.9,29.9-17.9,47.4V337.4z"/>
<path d="M467.6,337.4H567c20.5,0,40.1-8.8,53.7-24.2l4.6-5.2c11.5-13.1,17.9-29.9,17.9-47.4v-45.4c0-17.4-6.4-34.3-17.9-47.4
	l-4.6-5.2c-13.6-15.4-33.1-24.2-53.7-24.2h-99.4V337.4z"/>
<path d="M678.5,337.4h99.4c20.5,0,40.1-8.8,53.7-24.2l4.6-5.2c11.5-13.1,17.9-29.9,17.9-47.4v-45.4c0-17.4-6.4-34.3-17.9-47.4
	l-4.6-5.2c-13.6-15.4-33.1-24.2-53.7-24.2h-99.4V337.4z" />
<path d="M965.6,337.4h99.4V215.2c0-17.4-6.4-34.3-17.9-47.4l-4.6-5.2c-13.6-15.4-33.1-24.2-53.7-24.2h-23.2
	c-20.5,0-40.1,8.8-53.7,24.2l-4.6,5.2c-11.5,13.1-17.9,29.9-17.9,47.4v45.4c0,17.4,6.4,34.3,17.9,47.4l4.6,5.2
	C925.5,328.6,945,337.4,965.6,337.4z" />
<path d="M1100.2,337.4h175.6V215.2c0-17.4-6.4-34.3-17.9-47.4l-4.6-5.2c-13.6-15.4-33.1-24.2-53.7-24.2h-23.2
	c-20.5,0-40.1,8.8-53.7,24.2l-4.6,5.2c-11.5,13.1-17.9,29.9-17.9,47.4V337.4z"/>
</svg>
